<svg width="122" height="56" viewBox="0 0 122 56" fill="none" xmlns="http://www.w3.org/2000/svg">
<g clip-path="url(#clip0_27_192)">
<path d="M70.3207 36.2774L59.4158 30.9155V4.54072L70.3207 0V36.2774Z" fill="white"/>
<path d="M108.929 31.471H99.8113L85.851 17.6194V31.471H76.9507V4.87885H85.851L99.9924 18.8874V4.87885H108.941V31.471H108.929Z" fill="white"/>
<path d="M56.2276 4.6615L48.4022 31.2416H37.2677L32.0749 16.5205H31.7247L26.4232 31.2416H15.2887L7.45117 4.6615H17.6195L21.2907 20.083L21.6288 19.926L26.5077 4.6615H37.4972L42.5693 20.1676H42.8591L46.3371 4.6615H56.2156H56.2276Z" fill="white"/>
<path d="M5.06002 48.704H4.13014C4.13014 48.704 4.13014 51.3729 4.13014 51.4937H1.02651V48.704H0.0241699V55.503H1.02651V52.3753H4.13014V55.503H5.1204V48.704H5.06002Z" fill="white"/>
<path d="M9.10558 52.1579C9.10558 54.1867 10.3615 55.6117 12.1609 55.6117C13.7308 55.6117 15.3128 54.5007 15.3128 52.0371C15.3128 49.9841 14.081 48.6074 12.2454 48.6074C10.4098 48.6074 9.09351 50.0687 9.09351 52.17L9.10558 52.1579ZM10.1321 52.1337C10.1321 50.7812 10.7721 49.4165 12.2213 49.4165C13.6705 49.4165 14.2863 50.7932 14.2863 52.0613C14.2863 53.4138 13.6463 54.7664 12.2092 54.7664C10.8567 54.7664 10.1441 53.438 10.1441 52.1216L10.1321 52.1337Z" fill="white"/>
<path d="M25.602 48.704H24.503L23.2592 51.9647C23.2592 51.9647 22.7519 53.5467 22.595 54.0539C22.5104 53.764 21.967 51.9647 21.967 51.9647L20.8318 48.7403L19.6725 48.704H19.6121L19.1411 55.503H20.0951L20.2763 52.5806C20.2763 52.5806 20.3608 50.6966 20.3971 49.9479C20.5299 50.4189 21.0733 52.2424 21.0733 52.2424L22.1602 55.4185L22.8727 55.4668L24.1045 52.1941C24.1045 52.1941 24.7083 50.3706 24.8653 49.9358C24.8774 50.4068 24.9619 52.5322 24.9619 52.5322L25.1189 55.5272H26.085L25.6624 48.7282H25.614L25.602 48.704Z" fill="white"/>
<path d="M34.1036 48.704H30.4324V55.503H34.3089V54.6577H31.4226V52.3753H34.007V51.542H31.4226V49.5615H34.164V48.7161H34.1036V48.704Z" fill="white"/>
<path d="M44.9965 48.704H44.0667V55.503H45.0569V48.704H44.9965Z" fill="white"/>
<path d="M54.6818 48.704H53.8123V51.5661C53.8123 51.5661 53.8848 53.7278 53.8969 54.0901C53.6312 53.5225 53.3051 52.9187 52.7979 52.1096L50.6362 48.704H49.6701H49.6097V55.503H50.5396V52.5926C50.5396 52.5926 50.4913 50.3827 50.4913 50.0324C50.7691 50.6121 51.1314 51.2642 51.6386 52.0854L53.7519 55.4668L54.6818 55.503H54.7422V48.704H54.6818Z" fill="white"/>
<path d="M59.0898 50.4672C59.0898 51.3487 59.6573 51.9767 60.8891 52.4235C61.7707 52.7496 62.1088 53.0998 62.1088 53.6795C62.1088 54.3437 61.6016 54.7543 60.7804 54.7543C60.2491 54.7543 59.6936 54.5973 59.2709 54.3316L59.2105 54.2833L58.9569 55.0803C59.3675 55.4064 60.1042 55.5996 60.7201 55.5996C62.4832 55.5996 63.0991 54.5248 63.0991 53.607C63.0991 52.6892 62.5919 52.0733 61.3722 51.5903C60.394 51.2159 60.08 50.914 60.08 50.3585C60.08 49.8875 60.4544 49.4165 61.2756 49.4165C61.9519 49.4165 62.3866 49.6581 62.4953 49.7305L62.5557 49.7667L62.8334 48.9455L62.7851 48.9214C62.6161 48.8248 62.1209 48.5833 61.2876 48.5833C59.9834 48.5833 59.0656 49.3561 59.0656 50.4551L59.0898 50.4672Z" fill="white"/>
<path d="M67.3862 48.7885H67.3379V55.4909H68.3282C68.3282 55.4909 68.3282 52.9428 68.3282 52.8221C68.4489 52.8221 68.9561 52.8824 68.9561 52.8824C69.8498 52.8824 70.5864 52.6167 71.0453 52.1337C71.3956 51.7714 71.5888 51.2763 71.5888 50.6725C71.5888 50.0686 71.3714 49.5735 70.9729 49.2233C70.5623 48.8489 69.9102 48.6557 69.0648 48.6557C68.4489 48.6557 67.8813 48.704 67.3983 48.8006L67.3862 48.7885ZM69.0648 49.4527C70.043 49.4527 70.5744 49.8996 70.5744 50.7087C70.5744 51.5661 69.9826 52.0612 68.9682 52.0612C68.9682 52.0612 68.3885 52.0009 68.3161 52.0009V49.5252C68.4006 49.5252 69.0648 49.4648 69.0648 49.4648V49.4527Z" fill="white"/>
<path d="M79.4263 48.704H75.7551V55.503H79.6437V54.6577H76.7575V52.3753H79.3418V51.542H76.7575V49.5615H79.4988V48.7161H79.4384L79.4263 48.704Z" fill="white"/>
<path d="M83.3994 52.1579C83.3994 54.2471 84.7157 55.6117 86.7446 55.6117C87.602 55.6117 88.242 55.4306 88.5319 55.2856L88.5681 55.2615L88.3749 54.4524L88.3024 54.4886C87.9522 54.6577 87.4208 54.7543 86.9136 54.7543C85.3558 54.7543 84.4259 53.7761 84.4259 52.1337C84.4259 50.4913 85.4041 49.4407 86.9619 49.4407C87.6261 49.4407 88.073 49.6097 88.2662 49.7064L88.3386 49.7426L88.5922 48.9214L88.5439 48.8972C88.4111 48.8248 87.8918 48.5953 86.9378 48.5953C84.8123 48.5953 83.3873 50.0203 83.3873 52.1579H83.3994Z" fill="white"/>
<path d="M96.937 48.704H91.9374V49.5615H93.9662V55.503H94.9565V49.5615H96.9974V48.704H96.937Z" fill="white"/>
<path d="M101.719 48.704H100.789V55.503H101.78V48.704H101.719Z" fill="white"/>
<path d="M105.934 52.1579C105.934 54.1867 107.19 55.6117 108.989 55.6117H109.001C110.571 55.6117 112.153 54.5007 112.153 52.0371C112.153 49.9841 110.921 48.6074 109.074 48.6074C107.226 48.6074 105.922 50.0687 105.922 52.17L105.934 52.1579ZM106.96 52.1337C106.96 50.7812 107.613 49.4165 109.05 49.4165C110.487 49.4165 111.115 50.7932 111.115 52.0613C111.115 53.4138 110.475 54.7664 109.038 54.7664C107.685 54.7664 106.973 53.438 106.973 52.1216L106.96 52.1337Z" fill="white"/>
<path d="M120.51 48.704V51.5661C120.51 51.5661 120.534 53.4259 120.546 53.7882C120.546 53.7882 120.003 52.9187 119.508 52.1096L117.358 48.704H116.38H116.32V55.503H117.262V52.5926C117.262 52.5926 117.213 50.3827 117.213 50.0324C117.576 50.7933 118.022 51.5541 118.36 52.0854L120.498 55.491H121.464V48.704H120.534H120.51Z" fill="white"/>
<path d="M121.44 43.644H0V44.1391H121.44V43.644Z" fill="white"/>
<path d="M113.53 4.9151C114.762 4.9151 115.728 5.91744 115.728 7.16131C115.728 8.40517 114.75 9.41959 113.518 9.41959C112.286 9.41959 111.296 8.42932 111.296 7.16131C111.296 5.89329 112.298 4.9151 113.518 4.9151H113.53ZM113.53 5.26531C112.54 5.26531 111.731 6.11066 111.731 7.16131C111.731 8.21195 112.54 9.06937 113.53 9.06937C114.532 9.06937 115.329 8.2361 115.329 7.17338C115.329 6.11066 114.532 5.26531 113.53 5.26531ZM113.107 8.46555H112.709V5.96574C112.914 5.94159 113.119 5.90536 113.421 5.90536C113.796 5.90536 114.049 5.9899 114.194 6.09858C114.339 6.20727 114.424 6.37634 114.424 6.61787C114.424 6.94393 114.206 7.14923 113.941 7.22169V7.24584C114.158 7.28207 114.315 7.48737 114.363 7.84966C114.424 8.2361 114.484 8.3931 114.52 8.46555H114.098C114.037 8.38102 113.977 8.15157 113.929 7.82551C113.868 7.51152 113.711 7.39076 113.385 7.39076H113.107V8.46555ZM113.107 7.07677H113.397C113.723 7.07677 114.001 6.95601 114.001 6.64202C114.001 6.42465 113.844 6.20727 113.397 6.20727C113.264 6.20727 113.18 6.20727 113.107 6.23142V7.07677Z" fill="white"/>
</g>
<defs>
<clipPath id="clip0_27_192">
<rect width="121.44" height="55.5996" fill="white"/>
</clipPath>
</defs>
</svg>
